<svg width="256" height="29" viewBox="0 0 256 29" fill="none" xmlns="http://www.w3.org/2000/svg">
<path d="M9 6H249L244.747 21L10.2152 20.0625L9 6Z" fill="#E2E2E2"/>
<path fill-rule="evenodd" clip-rule="evenodd" d="M0 2.26563C0 1.01436 8.68296 0 19.3939 0H236.606C247.317 0 256 1.01435 256 2.26562V26.7344C256 27.9856 247.317 29 236.606 29H19.3939C8.68297 29 0 27.9856 0 26.7344V2.26563ZM19.3939 1.8125C17.2517 1.8125 4 3.509 4 3.75926V25.7778C4 26.028 17.2517 27.1875 19.3939 27.1875H236.606C238.748 27.1875 252.5 26.5651 252.5 26.3148V3.22222C252.515 2.56771 238.748 1.8125 236.606 1.8125H19.3939Z" fill="#A8A8A8"/>
<path fill-rule="evenodd" clip-rule="evenodd" d="M0 2.10938C0 0.9444 8.68296 0 19.3939 0H236.606C247.317 0 256 0.944399 256 2.10938V24.8906C256 26.0556 247.317 27 236.606 27H19.3939C8.68297 27 0 26.0556 0 24.8906V2.10938ZM19.3939 1.6875C17.2517 1.6875 4 3.267 4 3.5V24C4 24.233 17.2517 25.3125 19.3939 25.3125H236.606C238.748 25.3125 252.5 24.733 252.5 24.5V3C252.515 2.39062 238.748 1.6875 236.606 1.6875H19.3939Z" fill="#E2E2E2"/>
</svg>
