<svg width="66" height="66" viewBox="0 0 66 66" fill="none" xmlns="http://www.w3.org/2000/svg">
<rect width="66" height="66" rx="5" fill="#121212"/>
<g filter="url(#filter0_i_1_145)">
<rect width="58" height="58" transform="matrix(1 0 0 -1 4 62)" fill="url(#paint0_linear_1_145)"/>
</g>
<path fill-rule="evenodd" clip-rule="evenodd" d="M0 7C0 4.23858 2.23858 2 5 2H61C63.7614 2 66 4.23858 66 7V61C66 63.7614 63.7614 66 61 66H5C2.23858 66 0 63.7614 0 61V7ZM4 12V61C4 61.5523 4.44772 62 5 62H61C61.5523 62 62 61.5523 62 61V12L60 8L56 6H10L6 8L4 12Z" fill="#373737"/>
<path fill-rule="evenodd" clip-rule="evenodd" d="M0 5C0 2.23858 2.23858 0 5 0H61C63.7614 0 66 2.23858 66 5V59C66 61.7614 63.7614 64 61 64H5C2.23858 64 0 61.7614 0 59V5ZM56 4H10L6 6L4 10V54L6 58L10 60H56L60 58L62 54V10L60 6L56 4Z" fill="url(#paint1_linear_1_145)"/>
<g clip-path="url(#clip0_1_145)">
<path d="M33.5458 41.153C34.4641 41.153 35.2086 40.4086 35.2086 39.4902C35.2086 38.5719 34.4641 37.8275 33.5458 37.8275C32.6275 37.8275 31.8831 38.5719 31.8831 39.4902C31.8831 40.4086 32.6275 41.153 33.5458 41.153Z" fill="#D8D8D8"/>
<path d="M49.2675 32.3325L46.4524 29.5173C45.9563 29.0212 45.1517 29.0212 44.6555 29.5173L43.9483 30.2245L37.9078 24.184V21.5762C37.9078 20.8745 37.3389 20.3056 36.6372 20.3056H36.2317V18.4069H36.9921C37.3928 18.4069 37.7701 18.2179 38.01 17.8968C38.2498 17.5757 38.3242 17.1604 38.2105 16.7762L37.3635 13.9106C37.2039 13.3705 36.708 13 36.145 13H30.8612C30.2982 13 29.8023 13.3705 29.6427 13.9104L28.7957 16.776C28.6821 17.1603 28.7564 17.5757 28.9962 17.8967C29.2361 18.2177 29.6134 18.4067 30.0141 18.4067H30.7745V20.3054H30.4537C29.752 20.3054 29.1831 20.8743 29.1831 21.576V24.0991L23.0548 30.2275L22.3444 29.5171C22.1061 29.2788 21.7829 29.1449 21.446 29.1449C21.1091 29.1449 20.7859 29.2788 20.5477 29.5171L17.7325 32.3323C17.2363 32.8284 17.2363 33.6329 17.7325 34.1292L18.4512 34.8479C17.955 35.344 17.955 36.1485 18.4512 36.6448C18.9474 37.141 19.7518 37.1409 20.2481 36.6448L21.476 37.8727C20.9798 38.3688 20.9798 39.1733 21.476 39.6696C21.9722 40.1657 22.7766 40.1657 23.2729 39.6696L24.5008 40.8974C24.0046 41.3936 24.0046 42.1981 24.5008 42.6944C24.9968 43.1905 25.8013 43.1906 26.2977 42.6944L26.9385 43.3352V50.7294C26.9385 51.4311 27.5074 52.0001 28.2091 52.0001H38.7975C39.4991 52.0001 40.0681 51.4311 40.0681 50.7294V43.3289L40.7027 42.6943C41.1989 43.1905 42.0033 43.1905 42.4996 42.6943C42.9958 42.1982 42.9958 41.3936 42.4996 40.8974L43.7275 39.6695C44.2236 40.1657 45.0281 40.1657 45.5244 39.6695C46.0206 39.1734 46.0206 38.3688 45.5244 37.8726L46.7523 36.6447C47.2483 37.1409 48.0528 37.1409 48.5492 36.6447C49.0454 36.1486 49.0454 35.344 48.5492 34.8478L49.2679 34.1291C49.7637 33.6331 49.7637 32.8286 49.2675 32.3325ZM23.2727 36.0759L22.0448 34.848L23.0631 33.8297L24.291 35.0576L23.2727 36.0759ZM35.3667 22.8467V23.7257H31.7243V22.8467C32.1838 22.8467 34.9625 22.8467 35.3667 22.8467ZM33.3156 20.3055V18.4069H33.6906V20.3055H33.3156ZM31.8106 15.5412H35.1956L35.2915 15.8656C33.0914 15.8656 33.8165 15.8656 31.7147 15.8656L31.8106 15.5412ZM27.0791 38.3189L26.2974 39.1007L25.0695 37.8728L26.0878 36.8545L27.1709 37.9377C27.1534 38.0015 27.1052 38.1949 27.0791 38.3189ZM37.5267 42.8027V49.459H29.4795V42.809C29.4795 39.3927 29.4764 39.6199 29.4872 39.4362C29.4444 36.9276 31.5519 35.6518 33.5031 35.6518C35.7351 35.6518 37.5267 37.4707 37.5267 39.6753V42.8027ZM40.7024 39.1006L39.9288 38.327C39.9019 38.1987 39.8525 38.0005 39.8338 37.9328L40.9121 36.8546L41.9303 37.8729L40.7024 39.1006ZM42.14 32.0328L40.9121 33.2607C40.416 32.7645 39.6114 32.7645 39.1152 33.2607C38.6191 33.7568 38.6191 34.5614 39.1152 35.0576L38.6127 35.5601C37.4083 34.0677 35.5658 33.1106 33.5032 33.1106C31.4389 33.1106 29.5952 34.0692 28.3908 35.5637L27.8848 35.0577C28.381 34.5616 28.381 33.7571 27.8848 33.2608C27.3887 32.7647 26.5842 32.7647 26.0879 33.2608L24.86 32.0329C24.86 32.0329 24.5766 32.2997 30.6092 26.2669H36.397C42.4319 32.3018 42.14 32.0328 42.14 32.0328ZM43.7272 36.0758L42.709 35.0576L43.9369 33.8297L44.9551 34.8479L43.7272 36.0758Z" fill="#D8D8D8"/>
</g>
<defs>
<filter id="filter0_i_1_145" x="4" y="4" width="58" height="58" filterUnits="userSpaceOnUse" color-interpolation-filters="sRGB">
<feFlood flood-opacity="0" result="BackgroundImageFix"/>
<feBlend mode="normal" in="SourceGraphic" in2="BackgroundImageFix" result="shape"/>
<feColorMatrix in="SourceAlpha" type="matrix" values="0 0 0 0 0 0 0 0 0 0 0 0 0 0 0 0 0 0 127 0" result="hardAlpha"/>
<feOffset/>
<feGaussianBlur stdDeviation="5"/>
<feComposite in2="hardAlpha" operator="arithmetic" k2="-1" k3="1"/>
<feColorMatrix type="matrix" values="0 0 0 0 0 0 0 0 0 0 0 0 0 0 0 0 0 0 1 0"/>
<feBlend mode="normal" in2="shape" result="effect1_innerShadow_1_145"/>
</filter>
<linearGradient id="paint0_linear_1_145" x1="29" y1="0" x2="29" y2="58" gradientUnits="userSpaceOnUse">
<stop stop-color="#8F8F8F"/>
<stop offset="1" stop-color="#252525" stop-opacity="0"/>
</linearGradient>
<linearGradient id="paint1_linear_1_145" x1="62" y1="2" x2="2" y2="62" gradientUnits="userSpaceOnUse">
<stop stop-color="#D5D5D5"/>
<stop offset="0.973958" stop-color="#ABABAB"/>
</linearGradient>
<clipPath id="clip0_1_145">
<rect width="39" height="39" fill="white" transform="translate(14 13)"/>
</clipPath>
</defs>
</svg>
