<svg width="66" height="66" viewBox="0 0 66 66" fill="none" xmlns="http://www.w3.org/2000/svg">
<rect width="66" height="66" rx="5" fill="#121212"/>
<g filter="url(#filter0_i_1_246)">
<rect width="58" height="58" transform="matrix(1 0 0 -1 4 62)" fill="url(#paint0_linear_1_246)"/>
</g>
<path fill-rule="evenodd" clip-rule="evenodd" d="M0 7C0 4.23858 2.23858 2 5 2H61C63.7614 2 66 4.23858 66 7V61C66 63.7614 63.7614 66 61 66H5C2.23858 66 0 63.7614 0 61V7ZM4 12V61C4 61.5523 4.44772 62 5 62H61C61.5523 62 62 61.5523 62 61V12L60 8L56 6H10L6 8L4 12Z" fill="#5B0000"/>
<path fill-rule="evenodd" clip-rule="evenodd" d="M0 5C0 2.23858 2.23858 0 5 0H61C63.7614 0 66 2.23858 66 5V59C66 61.7614 63.7614 64 61 64H5C2.23858 64 0 61.7614 0 59V5ZM56 4H10L6 6L4 10V54L6 58L10 60H56L60 58L62 54V10L60 6L56 4Z" fill="url(#paint1_linear_1_246)"/>
<path d="M34.7298 13V44.7422C36.4608 44.647 37.9766 44.2923 39.1478 43.7212C40.5085 43.055 41.4042 42.1379 41.8175 40.9526L43.3591 41.4804C42.7907 43.1329 41.5247 44.3961 39.8626 45.1921C38.4158 45.9102 36.6589 46.2995 34.7298 46.3774V51.9925C38.5105 51.7242 41.9467 49.6651 44.5217 46.3774C47.269 42.856 49 37.9417 49 32.4997C49 27.0576 47.269 22.1433 44.5217 18.6186C41.9467 15.3282 38.5105 13.2613 34.7298 13ZM33.0935 13.0822C19.3926 13.6904 18 29.6792 18 33.9532C18 36.8603 22.0701 35.5625 22.337 38.3138L23.7839 50.4784C23.7839 51.8021 30.0879 52.0963 33.0935 51.9752V48.4798H31.6553V46.3947H30.3807V48.4798H28.753V46.3947H27.4957V48.4798H25.868V46.3947H24.335V44.7595H25.868V42.6743H27.4957V44.7595H28.753V42.6743H30.3807V44.7595H31.6553V42.6743H33.0935V39.9663L29.5712 40.8574L33.0935 35.2423V13.0822ZM26.712 29.9647C28.9339 29.9647 31.1902 30.3194 31.3797 31.0462C32.1203 33.8494 31.7586 36.047 29.9329 36.8603C24.4728 39.2655 22.337 35.4067 22.337 31.0462C22.337 30.3194 24.5073 29.9647 26.712 29.9647ZM40.4138 30.2242C42.0587 30.2242 43.4022 31.5826 43.4022 33.2264C43.4022 34.8703 42.0587 36.22 40.4138 36.22C38.7861 36.22 37.434 34.8703 37.434 33.2264C37.434 31.5826 38.7861 30.2242 40.4138 30.2242ZM40.4138 31.8681C39.6645 31.8681 39.0617 32.4651 39.0617 33.2264C39.0617 33.9878 39.6645 34.5935 40.4138 34.5935C41.1802 34.5935 41.7745 33.9878 41.7745 33.2264C41.7745 32.4651 41.1802 31.8681 40.4138 31.8681Z" fill="#F85151"/>
<defs>
<filter id="filter0_i_1_246" x="4" y="4" width="58" height="58" filterUnits="userSpaceOnUse" color-interpolation-filters="sRGB">
<feFlood flood-opacity="0" result="BackgroundImageFix"/>
<feBlend mode="normal" in="SourceGraphic" in2="BackgroundImageFix" result="shape"/>
<feColorMatrix in="SourceAlpha" type="matrix" values="0 0 0 0 0 0 0 0 0 0 0 0 0 0 0 0 0 0 127 0" result="hardAlpha"/>
<feOffset/>
<feGaussianBlur stdDeviation="5"/>
<feComposite in2="hardAlpha" operator="arithmetic" k2="-1" k3="1"/>
<feColorMatrix type="matrix" values="0 0 0 0 0 0 0 0 0 0 0 0 0 0 0 0 0 0 1 0"/>
<feBlend mode="normal" in2="shape" result="effect1_innerShadow_1_246"/>
</filter>
<linearGradient id="paint0_linear_1_246" x1="29" y1="0" x2="29" y2="58" gradientUnits="userSpaceOnUse">
<stop stop-color="#D60000"/>
<stop offset="1" stop-color="#CA0D0D" stop-opacity="0"/>
</linearGradient>
<linearGradient id="paint1_linear_1_246" x1="62" y1="2" x2="2" y2="62" gradientUnits="userSpaceOnUse">
<stop stop-color="#D80707"/>
<stop offset="0.973958" stop-color="#790D0D"/>
</linearGradient>
</defs>
</svg>
