<svg width="66" height="66" viewBox="0 0 66 66" fill="none" xmlns="http://www.w3.org/2000/svg">
<rect width="66" height="66" rx="5" fill="#121212"/>
<g filter="url(#filter0_i_1_202)">
<rect width="58" height="58" transform="matrix(1 0 0 -1 4 62)" fill="url(#paint0_linear_1_202)"/>
</g>
<path fill-rule="evenodd" clip-rule="evenodd" d="M0 7C0 4.23858 2.23858 2 5 2H61C63.7614 2 66 4.23858 66 7V61C66 63.7614 63.7614 66 61 66H5C2.23858 66 0 63.7614 0 61V7ZM4 12V61C4 61.5523 4.44772 62 5 62H61C61.5523 62 62 61.5523 62 61V12L60 8L56 6H10L6 8L4 12Z" fill="#373737"/>
<path fill-rule="evenodd" clip-rule="evenodd" d="M0 5C0 2.23858 2.23858 0 5 0H61C63.7614 0 66 2.23858 66 5V59C66 61.7614 63.7614 64 61 64H5C2.23858 64 0 61.7614 0 59V5ZM56 4H10L6 6L4 10V54L6 58L10 60H56L60 58L62 54V10L60 6L56 4Z" fill="url(#paint1_linear_1_202)"/>
<path fill-rule="evenodd" clip-rule="evenodd" d="M24.5533 16C28.0968 16 31.0846 17.8739 33 20.5647C34.9154 17.8739 37.9032 16 41.4467 16C46.8855 16 51.372 20.1366 51.9395 25.4236L46.0684 23.1737L33.3602 27.5024L21.4597 33.7164L20.8176 35.2553L14 27.4297V26.5581C14 20.7405 18.731 16 24.5533 16Z" fill="#D8D8D8"/>
<g clip-path="url(#clip0_1_202)">
<path d="M49.0125 47.3562C50.2696 46.0976 51.1641 44.6173 51.6992 43.0388H48.3191C47.9407 43.7988 47.4483 44.5191 46.815 45.1508C43.6581 48.3061 38.5254 48.3061 35.37 45.1508C32.2195 41.9955 32.2195 36.8659 35.37 33.7058C38.5285 30.5537 43.6581 30.5537 46.815 33.7058C46.8245 33.7137 46.8404 33.7391 46.8546 33.7502V33.7533L44.988 35.6231L50.9155 35.612L50.9234 29.6877L49.0616 31.5495C49.0426 31.5384 49.0236 31.521 49.0125 31.5068C44.6397 27.1324 37.5454 27.1324 33.1726 31.5068C28.795 35.8875 28.795 42.9771 33.1726 47.3562C37.5454 51.7274 44.6397 51.7322 49.0125 47.3562Z" fill="#D8D8D8"/>
</g>
<defs>
<filter id="filter0_i_1_202" x="4" y="4" width="58" height="58" filterUnits="userSpaceOnUse" color-interpolation-filters="sRGB">
<feFlood flood-opacity="0" result="BackgroundImageFix"/>
<feBlend mode="normal" in="SourceGraphic" in2="BackgroundImageFix" result="shape"/>
<feColorMatrix in="SourceAlpha" type="matrix" values="0 0 0 0 0 0 0 0 0 0 0 0 0 0 0 0 0 0 127 0" result="hardAlpha"/>
<feOffset/>
<feGaussianBlur stdDeviation="5"/>
<feComposite in2="hardAlpha" operator="arithmetic" k2="-1" k3="1"/>
<feColorMatrix type="matrix" values="0 0 0 0 0 0 0 0 0 0 0 0 0 0 0 0 0 0 1 0"/>
<feBlend mode="normal" in2="shape" result="effect1_innerShadow_1_202"/>
</filter>
<linearGradient id="paint0_linear_1_202" x1="29" y1="0" x2="29" y2="58" gradientUnits="userSpaceOnUse">
<stop stop-color="#8F8F8F"/>
<stop offset="1" stop-color="#252525" stop-opacity="0"/>
</linearGradient>
<linearGradient id="paint1_linear_1_202" x1="62" y1="2" x2="2" y2="62" gradientUnits="userSpaceOnUse">
<stop stop-color="#D5D5D5"/>
<stop offset="0.973958" stop-color="#ABABAB"/>
</linearGradient>
<clipPath id="clip0_1_202">
<rect width="22.4103" height="22.4103" fill="white" transform="matrix(0 1 -1 0 52 28.2264)"/>
</clipPath>
</defs>
</svg>
