<svg width="82" height="82" viewBox="0 0 82 82" fill="none" xmlns="http://www.w3.org/2000/svg">
<path d="M64.9169 51.2508V13.6674C64.9145 13.1542 64.7966 12.6482 64.5718 12.1868C64.347 11.7254 64.0212 11.3206 63.6185 11.0024C63.2216 10.6813 62.7578 10.4533 62.2611 10.335C61.7644 10.2168 61.2476 10.2113 60.7485 10.3191L29.9985 17.1524C29.2394 17.3236 28.5615 17.7488 28.0769 18.3577C27.5923 18.9666 27.33 19.7226 27.3335 20.5008V48.9958C25.0011 47.8946 22.3745 47.5795 19.8477 48.0976C17.321 48.6157 15.0304 49.9392 13.3195 51.8694C11.6087 53.7996 10.5698 56.2325 10.3588 58.8032C10.1478 61.3739 10.776 63.9436 12.1492 66.127C13.5224 68.3104 15.5665 69.9897 17.9749 70.9129C20.3834 71.8361 23.0262 71.9535 25.507 71.2475C27.9878 70.5414 30.1728 69.05 31.7342 66.997C33.2955 64.944 34.1491 62.44 34.1669 59.8608C34.2022 59.2691 34.2022 58.6758 34.1669 58.0841V23.2341L58.0835 17.9383V42.1624C55.7498 41.0606 53.1216 40.7457 50.5936 41.265C48.0656 41.7843 45.7743 43.1097 44.0638 45.0422C42.3533 46.9747 41.316 49.41 41.1076 51.9824C40.8992 54.5547 41.531 57.1253 42.908 59.3079C44.2851 61.4906 46.3332 63.1676 48.7446 64.087C51.156 65.0065 53.8007 65.1188 56.2813 64.407C58.762 63.6953 60.9449 62.1979 62.502 60.1398C64.0591 58.0817 64.9065 55.574 64.9169 52.9933C64.9493 52.4129 64.9493 51.8312 64.9169 51.2508ZM22.3452 64.9174C21.3823 64.9171 20.4393 64.6437 19.6255 64.129C18.8118 63.6142 18.1607 62.8792 17.7478 62.0094C17.335 61.1395 17.1773 60.1703 17.2931 59.2144C17.4089 58.2585 17.7934 57.3551 18.402 56.6089C19.0106 55.8627 19.8183 55.3045 20.7314 54.9989C21.6446 54.6933 22.6256 54.653 23.5607 54.8826C24.4958 55.1122 25.3467 55.6022 26.0145 56.2959C26.6823 56.9896 27.1397 57.8584 27.3335 58.8016C27.3671 59.1424 27.3671 59.4858 27.3335 59.8266C27.3338 61.1592 26.8116 62.4388 25.8789 63.3906C24.9462 64.3424 23.6775 64.8906 22.3452 64.9174ZM53.0952 58.0841C52.1223 58.0917 51.1674 57.8222 50.342 57.3071C49.5167 56.7921 48.8549 56.0527 48.4342 55.1755C48.0135 54.2983 47.8512 53.3194 47.9662 52.3533C48.0812 51.3873 48.4689 50.4739 49.0838 49.72C49.6987 48.966 50.5155 48.4027 51.4388 48.0959C52.362 47.789 53.3535 47.7513 54.2974 47.9871C55.2413 48.2229 56.0986 48.7225 56.769 49.4275C57.4395 50.1325 57.8954 51.0137 58.0835 51.9683C58.1171 52.3091 58.1171 52.6524 58.0835 52.9933C58.0746 54.3407 57.5354 55.6304 56.5826 56.5831C55.6298 57.5359 54.3401 58.0751 52.9927 58.0841H53.0952Z" fill="url(#paint0_linear_1_45)"/>
<defs>
<linearGradient id="paint0_linear_1_45" x1="64.9412" y1="10.2421" x2="5.33987" y2="15.5245" gradientUnits="userSpaceOnUse">
<stop stop-color="#A700FF"/>
<stop offset="1" stop-color="#D27DFF"/>
</linearGradient>
</defs>
</svg>
