<svg width="256" height="29" viewBox="0 0 256 29" fill="none" xmlns="http://www.w3.org/2000/svg">
<path fill-rule="evenodd" clip-rule="evenodd" d="M0 2.26563C0 1.01436 8.68296 0 19.3939 0H236.606C247.317 0 256 1.01435 256 2.26562V26.7344C256 27.9856 247.317 29 236.606 29H19.3939C8.68297 29 0 27.9856 0 26.7344V2.26563ZM19.3939 1.8125C17.2517 1.8125 4 3.509 4 3.75926V25.7778C4 26.028 17.2517 27.1875 19.3939 27.1875H236.606C238.748 27.1875 252.5 26.5651 252.5 26.3148V3.22222C252.515 2.56771 238.748 1.8125 236.606 1.8125H19.3939Z" fill="#A8A8A8"/>
</svg>
