<svg width="74" height="74" viewBox="0 0 74 74" fill="none" xmlns="http://www.w3.org/2000/svg">
<path d="M57.5874 60.4552L39.9662 42.8309C36.1853 45.5188 31.5327 46.6883 26.9303 46.1074C22.3279 45.5266 18.1116 43.2379 15.1172 39.6949C12.1227 36.1519 10.5686 31.6132 10.7629 26.9784C10.9571 22.3435 12.8855 17.9508 16.1659 14.6708C19.4454 11.3894 23.8381 9.45986 28.4733 9.26479C33.1085 9.06971 37.6478 10.6233 41.1914 13.6176C44.7351 16.6118 47.0243 20.8282 47.6055 25.431C48.1866 30.0337 47.0172 34.6868 44.3291 38.468L61.9503 56.0923L57.5905 60.4521L57.5874 60.4552ZM29.2454 15.417C26.4089 15.4163 23.6589 16.3934 21.4587 18.1835C19.2585 19.9737 17.7426 22.4675 17.1664 25.2449C16.5902 28.0222 16.9889 30.9133 18.2954 33.431C19.6018 35.9487 21.7362 37.9391 24.3388 39.0669C26.9415 40.1946 29.8533 40.3908 32.5837 39.6224C35.3141 38.854 37.6962 37.1679 39.3286 34.8483C40.9611 32.5286 41.7441 29.7172 41.5457 26.8877C41.3473 24.0581 40.1796 21.3835 38.2395 19.3143L40.1049 21.1643L38.0021 19.0676L37.9651 19.0306C36.8229 17.8814 35.4641 16.9703 33.9674 16.35C32.4706 15.7297 30.8656 15.4126 29.2454 15.417Z" fill="url(#paint0_linear_1_93)"/>
<defs>
<linearGradient id="paint0_linear_1_93" x1="61.9503" y1="9.24842" x2="6.19483" y2="14.8082" gradientUnits="userSpaceOnUse">
<stop stop-color="#A700FF"/>
<stop offset="1" stop-color="#D27DFF"/>
</linearGradient>
</defs>
</svg>
